<?xml version="1.0" encoding="UTF-8" standalone="no"?>
<!-- Created with Inkscape (http://www.inkscape.org/) -->

<svg
   width="512"
   height="512"
   viewBox="0 0 512 512"
   version="1.1"
   id="svg1"
   inkscape:version="1.4 (e7c3feb100, 2024-10-09)"
   sodipodi:docname="light-logo.svg"
   xmlns:inkscape="http://www.inkscape.org/namespaces/inkscape"
   xmlns:sodipodi="http://sodipodi.sourceforge.net/DTD/sodipodi-0.dtd"
   xmlns="http://www.w3.org/2000/svg"
   xmlns:svg="http://www.w3.org/2000/svg">
  <sodipodi:namedview
     id="namedview1"
     pagecolor="#ffffff"
     bordercolor="#999999"
     borderopacity="1"
     inkscape:showpageshadow="2"
     inkscape:pageopacity="0"
     inkscape:pagecheckerboard="0"
     inkscape:deskcolor="#d1d1d1"
     inkscape:document-units="px"
     inkscape:zoom="1.6020388"
     inkscape:cx="256.54809"
     inkscape:cy="268.40798"
     inkscape:window-width="2560"
     inkscape:window-height="1371"
     inkscape:window-x="0"
     inkscape:window-y="0"
     inkscape:window-maximized="1"
     inkscape:current-layer="layer1" />
  <defs
     id="defs1" />
  <g
     inkscape:label="Слой 1"
     inkscape:groupmode="layer"
     id="layer1">
    <path
       d="m 511.99997,256 a 128,143.36 0 0 1 -128,143.36 128,143.36 0 0 1 -3.11199,-0.344 A 128,143.36 0 0 1 255.99997,512 a 256,256 0 0 0 256,-256 z"
       style="fill:#3584e4;fill-opacity:1;stroke-width:2.11294"
       id="path12" />
    <path
       d="m 380.82797,112.756 a 128,143.36 0 0 1 3.172,-0.11592 128,143.36 0 0 1 128,143.36 256,256 0 0 0 -256,-255.99999808 128,143.36 0 0 1 124.828,112.75599808 z"
       style="fill:#3584e4;fill-opacity:1;stroke-width:2.11294"
       id="path11" />
    <path
       d="M -2.552e-5,256 A 256,256 0 0 0 255.99997,512 128,143.36 0 0 1 131.11197,399.016 128,143.36 0 0 1 127.99997,399.36 128,143.36 0 0 1 -2.552e-5,256 Z"
       style="fill:#3584e4;fill-opacity:1;stroke-width:2.11294"
       id="path4" />
    <path
       d="M -2.552e-5,256 A 128,143.36 0 0 1 127.99997,112.64 128,143.36 0 0 1 130.96398,112.96801 128,143.36 0 0 1 255.99997,0 256,256 0 0 0 -2.552e-5,256 Z"
       style="fill:#3584e4;fill-opacity:1;stroke-width:2.11294"
       id="path3" />
    <path
       d="M 258.96398,225.60801 A 128,143.36 0 0 1 334.24797,256 a 128,143.36 0 0 0 49.752,-112.64 128,143.36 0 0 0 -3.172,-30.604 128,143.36 0 0 0 -121.86399,112.85201 z"
       style="fill:#1f2937;fill-opacity:1;stroke-width:1.11806"
       id="path10" />
    <path
       d="M 252.82797,225.396 A 128,143.36 0 0 0 130.96398,112.96801 128,143.36 0 0 0 127.99997,143.36 a 128,143.36 0 0 0 49.32,112.244 128,143.36 0 0 1 75.508,-30.208 z"
       style="fill:#1f2937;fill-opacity:1;stroke-width:1.11806"
       id="path14" />
    <path
       d="m 380.88798,399.016 a 128,143.36 0 0 0 3.11199,-30.376 128,143.36 0 0 0 -49.752,-112.64 128,143.36 0 0 1 -75.136,30.376 128,143.36 0 0 0 121.77601,112.64 z"
       style="fill:#1f2937;fill-opacity:1;stroke-width:1.11806"
       id="path13" />
    <path
       d="m 131.11197,399.016 a 128,143.36 0 0 0 121.77601,-112.64 128,143.36 0 0 1 -75.56801,-30.772 128,143.36 0 0 0 -49.32,113.036 128,143.36 0 0 0 3.112,30.376 z"
       style="fill:#1f2937;fill-opacity:1;stroke-width:1.11806"
       id="path5" />
    <ellipse
       style="fill:#3584e4;fill-opacity:1;stroke-width:2.31363"
       id="path15"
       cx="256"
       cy="256"
       rx="50.115597"
       ry="17.932463" />
  </g>
</svg>
